<svg width="127" height="34" viewBox="0 0 127 34" fill="none" xmlns="http://www.w3.org/2000/svg">
<circle cx="13.8636" cy="13.8636" r="13.8636" fill="#F87777" fill-opacity="0.5"/>
<circle cx="17.5606" cy="16.6363" r="13.8636" fill="#F87777"/>
<path d="M15.2833 21.9704C15.027 21.9704 14.8199 21.8225 14.6622 21.5268C14.5242 21.2113 14.4946 20.9747 14.5735 20.817C14.6129 20.7775 14.6425 20.7282 14.6622 20.6691C14.7016 20.5902 14.7312 20.5409 14.7509 20.5212C14.7904 20.4818 14.8101 20.4719 14.8101 20.4916C14.8298 20.4916 14.8495 20.4818 14.8692 20.4621C14.8889 20.4226 14.8889 20.3931 14.8692 20.3733C14.8495 20.3339 14.8495 20.3043 14.8692 20.2846C14.9284 20.0874 14.9974 19.8705 15.0763 19.6339C15.1748 19.3973 15.2636 19.1706 15.3424 18.9537C15.3424 18.934 15.3523 18.9143 15.372 18.8945C15.3917 18.8748 15.4016 18.8551 15.4016 18.8354C15.441 18.7368 15.4607 18.6481 15.4607 18.5692C15.4805 18.4706 15.5002 18.3819 15.5199 18.303C15.5199 18.2833 15.5396 18.2833 15.579 18.303C15.6185 18.303 15.6481 18.2932 15.6678 18.2735C15.7072 18.1749 15.6973 18.1256 15.6382 18.1256C15.579 18.1256 15.5495 18.1157 15.5495 18.096L15.8156 17.1496C15.8354 17.1299 15.8551 17.051 15.8748 16.913C15.9142 16.7749 15.9438 16.6665 15.9635 16.5876V16.7059C15.9635 16.7848 15.9734 16.8735 15.9931 16.9721C16.0325 17.051 16.0917 17.0707 16.1706 17.0313C16.2297 16.9918 16.2396 16.9623 16.2001 16.9425C16.1804 16.9031 16.1607 16.8538 16.141 16.7947C16.1213 16.7552 16.1213 16.7059 16.141 16.6468C16.1804 16.5679 16.2001 16.5285 16.2001 16.5285C16.2396 16.4891 16.279 16.5285 16.3184 16.6468C16.3776 16.7651 16.417 16.8144 16.4367 16.7947C16.4367 16.7552 16.4367 16.6961 16.4367 16.6172C16.4565 16.5383 16.4466 16.4891 16.4072 16.4693C16.348 16.4102 16.2593 16.3609 16.141 16.3215C16.0424 16.282 16.003 16.2426 16.0227 16.2032C16.0227 16.144 16.0325 16.075 16.0523 15.9961C16.1114 15.937 16.141 15.8877 16.141 15.8482C16.141 15.8088 16.1213 15.7891 16.0818 15.7891C16.0621 15.7891 16.0523 15.7792 16.0523 15.7595C16.0523 15.6609 16.0523 15.5722 16.0523 15.4933C16.072 15.3947 16.0818 15.2962 16.0818 15.1976C16.0818 14.9807 16.0128 14.7934 15.8748 14.6356C15.7565 14.4582 15.579 14.3695 15.3424 14.3695C15.1255 14.3695 15.0171 14.3202 15.0171 14.2216C15.0171 14.123 15.1255 14.0145 15.3424 13.8962C15.579 13.7582 15.8452 13.6892 16.141 13.6892C16.6142 13.6892 16.9297 13.916 17.0874 14.3695C17.2649 14.8229 17.324 15.375 17.2649 16.0257C17.2649 16.0651 17.2254 16.1046 17.1466 16.144C17.0874 16.1637 17.0578 16.1933 17.0578 16.2327C17.0578 16.2722 17.0775 16.2919 17.117 16.2919C17.1761 16.2722 17.2156 16.282 17.2353 16.3215C17.2353 16.3609 17.2254 16.4398 17.2057 16.5581C17.186 16.6764 17.1663 16.7552 17.1466 16.7947C17.048 17.3073 16.9198 17.82 16.7621 18.3326C16.6043 18.8453 16.417 19.3185 16.2001 19.7522C16.141 19.7522 16.1015 19.7818 16.0818 19.841C16.0621 19.9001 16.0325 19.9297 15.9931 19.9297C15.934 19.9297 15.8748 19.91 15.8156 19.8705C15.7762 19.8114 15.7565 19.8114 15.7565 19.8705V19.9001C15.7565 19.979 15.7861 20.0283 15.8452 20.048C15.9241 20.0677 15.9734 20.0874 15.9931 20.1072C16.0325 20.1269 16.072 20.1367 16.1114 20.1367C16.1508 20.1367 16.1804 20.117 16.2001 20.0776C16.2396 20.0381 16.279 20.0086 16.3184 19.9888C16.4367 19.91 16.5649 19.7818 16.7029 19.6044C16.8607 19.4269 16.9888 19.2593 17.0874 19.1016C17.2057 18.9438 17.2649 18.865 17.2649 18.865C17.2254 18.8255 17.255 18.7861 17.3536 18.7467L17.3832 18.7171L17.5015 18.5396C17.5212 18.4411 17.5803 18.3129 17.6789 18.1552C17.7775 17.9974 17.8662 17.9087 17.9451 17.889L18.0043 17.8002L17.9747 17.7707C17.9747 17.7707 17.9845 17.7805 18.0043 17.8002C18.0437 17.8002 18.0831 17.7904 18.1226 17.7707C18.1226 17.7509 18.1127 17.7214 18.093 17.6819C18.093 17.6425 18.1028 17.6228 18.1226 17.6228L18.2704 17.3862C18.3099 17.2679 18.3493 17.189 18.3887 17.1496C18.369 17.0904 18.3887 17.051 18.4479 17.0313C18.4873 17.0116 18.5268 17.0116 18.5662 17.0313C18.6253 17.0313 18.6549 16.9918 18.6549 16.913V16.8538C18.6549 16.8144 18.6648 16.7651 18.6845 16.7059C18.7042 16.6468 18.7239 16.6172 18.7436 16.6172H18.8028L18.862 16.5581C18.8422 16.5186 18.8422 16.5088 18.862 16.5285C18.9014 16.5285 18.931 16.5088 18.9507 16.4693L19.0986 16.2919L19.2464 16.0553C19.2464 16.0356 19.2957 15.9764 19.3943 15.8778C19.4929 15.7595 19.5915 15.6511 19.6901 15.5525C19.8084 15.4342 19.8675 15.375 19.8675 15.375C20.0055 15.237 20.114 15.1088 20.1929 14.9905C20.2717 14.8525 20.3703 14.7145 20.4886 14.5765L20.5478 14.5469L20.5773 14.4878L20.8731 14.0737C21.0308 13.8568 21.1294 13.6892 21.1689 13.5709C21.2083 13.4526 21.3167 13.423 21.4942 13.4822C21.5336 13.5019 21.6322 13.5413 21.79 13.6005C21.9477 13.6399 22.066 13.6695 22.1449 13.6892H22.2927C22.411 13.6892 22.5195 13.6892 22.6181 13.6892C22.7364 13.6695 22.835 13.6596 22.9138 13.6596C22.9927 13.6596 23.0814 13.6498 23.18 13.6301C23.2786 13.5906 23.3377 13.5906 23.3575 13.6301C23.3772 13.6498 23.387 13.6794 23.387 13.7188C23.387 13.7779 23.3673 13.8272 23.3279 13.8667C23.2885 13.9061 23.249 13.9455 23.2096 13.985C23.0716 14.1427 22.8645 14.3004 22.5885 14.4582C22.3322 14.6159 22.1547 14.7441 22.0561 14.8427C22.0167 14.8821 21.9477 14.8722 21.8491 14.8131C21.7505 14.7539 21.6716 14.7737 21.6125 14.8722C21.5928 14.9314 21.5533 14.961 21.4942 14.961C21.435 14.961 21.3266 14.9215 21.1689 14.8427C21.0506 14.8821 20.9421 14.9314 20.8435 14.9905C20.7449 15.0497 20.6266 15.1384 20.4886 15.2567C19.976 15.7497 19.4436 16.4102 18.8915 17.2383C18.3592 18.0467 17.8071 18.8354 17.2353 19.6044C17.0775 19.8213 16.9691 19.9691 16.91 20.048C16.8705 20.1072 16.8114 20.1959 16.7325 20.3142C16.7128 20.3339 16.6832 20.3339 16.6438 20.3142C16.6043 20.2945 16.5649 20.3043 16.5255 20.3438C16.5255 20.3438 16.5255 20.3733 16.5255 20.4325C16.5255 20.4719 16.5156 20.5015 16.4959 20.5212C16.4959 20.5409 16.4762 20.5606 16.4367 20.5804C16.417 20.6001 16.3973 20.6297 16.3776 20.6691C16.3579 20.6888 16.3677 20.6987 16.4072 20.6987C16.4663 20.6987 16.486 20.7085 16.4663 20.7282C16.4466 20.8071 16.3776 20.9156 16.2593 21.0536C16.1607 21.1916 16.0818 21.3099 16.0227 21.4085C15.8847 21.6057 15.7466 21.7535 15.6086 21.8521C15.4903 21.931 15.3819 21.9704 15.2833 21.9704Z" fill="#0D0D0C"/>
<path d="M40.3413 23.4788L40.1343 23.3605L40.0456 23.0056C40.1047 22.8873 40.2033 22.6802 40.3413 22.3845C40.4794 22.0887 40.6174 21.793 40.7554 21.4972C40.9131 21.2015 41.0314 21.0339 41.1103 20.9944L41.1399 20.1959C40.8441 20.4325 40.6075 20.6987 40.4301 20.9944C40.2723 21.2902 40.0653 21.5761 39.809 21.8521C39.7893 21.8718 39.7498 21.931 39.6907 22.0296C39.6315 22.1282 39.5822 22.1873 39.5428 22.207C39.3062 22.3056 39.1583 22.3549 39.0992 22.3549C38.9808 22.3549 38.971 22.276 39.0696 22.1183C39.1879 21.9606 39.3555 21.7535 39.5724 21.4972C39.9667 21.0832 40.3118 20.6987 40.6075 20.3438C40.923 19.9888 41.1793 19.7128 41.3765 19.5156C41.2976 19.3579 41.2582 19.1607 41.2582 18.9241C41.2582 18.6086 41.337 18.2932 41.4948 17.9777L41.3469 18.0073L41.1695 16.8538L41.2286 16.7355C41.2483 16.6764 41.2582 16.6172 41.2582 16.5581C41.2582 16.4792 41.2582 16.4003 41.2582 16.3215C41.2582 15.9665 41.2089 15.5821 41.1103 15.168C41.0314 14.7539 40.992 14.3793 40.992 14.0441C40.992 13.9455 40.992 13.8667 40.992 13.8075C41.0117 13.7286 41.0314 13.6498 41.0512 13.5709L40.8441 13.2752V13.216C40.8441 13.1568 40.8047 13.0977 40.7258 13.0385C40.6667 12.9794 40.6371 12.9498 40.6371 12.9498L40.5188 12.4766V12.4175C40.5188 12.3583 40.4892 12.309 40.4301 12.2696C40.3906 12.2301 40.3512 12.171 40.3118 12.0921L39.9568 10.8499C39.9568 10.8499 39.9667 10.8105 39.9864 10.7316C40.0061 10.6331 40.0061 10.5443 39.9864 10.4655C39.9864 10.426 39.9273 10.357 39.809 10.2584C39.7104 10.1401 39.6611 10.081 39.6611 10.081C39.6611 10.081 39.6315 10.0711 39.5724 10.0514C39.5132 10.0317 39.4738 10.0514 39.4541 10.1105C39.4541 10.1105 39.4343 10.1598 39.3949 10.2584C39.3555 10.3373 39.3456 10.4162 39.3653 10.495C39.4048 10.7711 39.4245 11.0767 39.4245 11.4119C39.4245 11.5893 39.3949 11.6781 39.3358 11.6781C39.2963 11.6781 39.2569 11.6386 39.2175 11.5598C39.178 11.4612 39.1682 11.3724 39.1879 11.2936C39.1879 11.2344 39.1682 11.1457 39.1287 11.0274C39.0696 10.8105 38.9907 10.5542 38.8921 10.2584C38.8133 9.94295 38.7245 9.7162 38.6259 9.57818L38.3598 9.40073C38.2217 9.30214 38.0837 9.17398 37.9457 9.01624C37.8274 8.8585 37.7584 8.70077 37.7387 8.54303C37.7387 8.54303 37.788 8.44444 37.8865 8.24727C38.0048 8.0501 38.1626 7.94166 38.3598 7.92194H38.4485C38.6654 7.92194 38.8625 8.07968 39.04 8.39515L39.247 8.72048C39.385 8.72048 39.5034 8.81907 39.6019 9.01624C39.7202 9.1937 39.8188 9.39087 39.8977 9.60776C39.9766 9.82465 40.0554 9.98238 40.1343 10.081C40.2723 10.2979 40.3709 10.4556 40.4301 10.5542C40.4892 10.633 40.5385 10.7316 40.5779 10.8499C40.6174 10.9485 40.6765 11.1358 40.7554 11.4119C40.8343 11.4907 40.8737 11.5696 40.8737 11.6485C40.8934 11.7076 40.9526 11.7668 41.0512 11.8259L41.4061 12.5062L41.7314 13.4822C41.8103 13.4822 41.8891 13.6596 41.968 14.0145C42.0666 14.3497 42.1455 14.7046 42.2046 15.0793C42.2835 15.4342 42.3229 15.6708 42.3229 15.7891L42.4116 15.8482V15.937C42.3919 15.9764 42.3821 16.0257 42.3821 16.0848C42.4018 16.144 42.4116 16.1933 42.4116 16.2327L42.3821 16.3215L42.5004 16.4693L42.4708 16.5581C42.5694 16.7749 42.6285 17.0116 42.6482 17.2679C42.668 17.5242 42.6877 17.7707 42.7074 18.0073L42.5299 18.303L42.5891 18.5692C42.6877 18.5101 42.737 18.4312 42.737 18.3326C42.737 18.2143 42.7764 18.1157 42.8553 18.0368C42.9539 17.9383 43.151 17.7509 43.4468 17.4749C43.7623 17.1792 44.1073 16.8637 44.4819 16.5285C44.8566 16.1736 45.1819 15.8581 45.4579 15.5821C45.734 15.2863 45.8819 15.099 45.9016 15.0201L46.1086 14.9018L46.1678 14.9314L46.4931 14.4582C46.6114 14.4582 46.8086 14.33 47.0846 14.0737C47.3804 13.8174 47.6663 13.5413 47.9423 13.2456C48.2183 12.9498 48.3958 12.7526 48.4747 12.6541L48.593 12.6836L48.7113 12.447C48.7901 12.3287 48.9577 12.171 49.2141 11.9738C49.4901 11.7766 49.7859 11.5696 50.1013 11.3527C50.4168 11.1358 50.7027 10.9485 50.959 10.7908C51.2351 10.633 51.4125 10.5345 51.4914 10.495L51.6393 10.1105C52.0336 9.81479 52.4181 9.52889 52.7927 9.25285C53.1674 8.95709 53.5518 8.68105 53.9462 8.42473L54.0053 8.4543L56.1644 7.12339L56.3714 7.15297C56.4305 7.15297 56.4897 7.11353 56.5488 7.03467C56.6277 6.9558 56.677 6.89665 56.6967 6.85721L56.9629 7.00509L57.2882 6.73891L57.5248 6.88679C57.6629 6.88679 57.7122 6.79806 57.6727 6.6206L58.0572 6.44315C58.1952 6.46287 58.2741 6.47273 58.2938 6.47273C58.3333 6.45301 58.3924 6.44315 58.4713 6.44315C58.5699 6.44315 58.6684 6.45301 58.767 6.47273C58.8853 6.47273 58.9938 6.47273 59.0924 6.47273C59.1909 6.47273 59.2698 6.47273 59.329 6.47273C59.4078 6.45301 59.4867 6.43329 59.5656 6.41358C59.6247 6.39386 59.7233 6.43329 59.8613 6.53188C59.9994 6.63046 60.1078 6.69947 60.1867 6.73891C60.6204 6.97551 60.8373 7.37972 60.8373 7.95151C60.8373 8.28671 60.6993 8.69091 60.4233 9.16412C60.1472 9.63733 59.8219 10.1007 59.4473 10.5542C59.0726 11.0077 58.7375 11.3922 58.4417 11.7076C58.422 11.7274 58.3431 11.7766 58.2051 11.8555C58.0868 11.9147 57.9783 11.9442 57.8798 11.9442C57.8403 11.9442 57.8206 11.9245 57.8206 11.8851C57.8206 11.8457 57.8403 11.7865 57.8798 11.7076C57.9192 11.6288 57.9981 11.5203 58.1164 11.3823C58.3924 11.0471 58.6882 10.6725 59.0036 10.2584C59.3191 9.84436 59.5853 9.44016 59.8022 9.04582C60.0388 8.63176 60.1571 8.29656 60.1571 8.04024C60.1571 7.54731 59.9303 7.25155 59.4768 7.15297L59.2994 7.30085L59.0036 7.2417L58.9741 7.30085C58.9543 7.30085 58.9346 7.29099 58.9149 7.27127C58.9149 7.23184 58.9051 7.21212 58.8853 7.21212L58.8558 7.27127L58.7375 7.12339C58.7177 7.22198 58.6389 7.32056 58.5008 7.41915C58.3825 7.51774 58.2741 7.53745 58.1755 7.4783L57.9981 7.62618L57.8502 7.50788C57.791 7.50788 57.7122 7.54731 57.6136 7.62618C57.515 7.68533 57.446 7.73463 57.4065 7.77406L57.1404 7.59661L56.9925 7.65576L56.9333 7.92194H56.9038C56.3517 8.17826 55.7602 8.47402 55.1292 8.80921C54.4983 9.12469 53.9265 9.45988 53.4138 9.81479C53.1772 9.97252 52.8322 10.2091 52.3787 10.5246C51.9252 10.8204 51.4421 11.1556 50.9295 11.5302C50.4365 11.8851 49.983 12.24 49.569 12.5949C49.1746 12.9301 48.9183 13.2061 48.8 13.423L48.6521 13.4822C48.5141 13.6202 48.4057 13.7681 48.3268 13.9258L47.1733 14.8427L47.1142 14.7835C46.5818 15.237 46.0987 15.7004 45.665 16.1736C45.2509 16.6271 44.8073 17.1003 44.3341 17.5932C43.8806 18.0861 43.3186 18.5988 42.6482 19.1312L42.5299 19.7227L42.6482 19.9001L42.4412 20.4029C42.4806 20.4423 42.5004 20.4818 42.5004 20.5212C42.5004 20.6198 42.4708 20.748 42.4116 20.9057C42.3722 21.0437 42.3328 21.1522 42.2933 21.231C42.2342 21.6057 42.1553 21.9803 42.0567 22.3549C41.9779 22.7295 41.8103 23.0253 41.5539 23.2422C41.3173 23.4591 40.9131 23.5379 40.3413 23.4788ZM53.1971 12.7724C53.1379 12.7724 53.0788 12.7526 53.0196 12.7132C52.9802 12.6738 52.921 12.6245 52.8422 12.5653C52.8027 12.5456 52.7534 12.5259 52.6943 12.5062C52.6549 12.4667 52.6351 12.4076 52.6351 12.3287C52.6154 12.309 52.576 12.2992 52.5168 12.2992C52.4183 12.2992 52.369 12.2301 52.369 12.0921C52.369 11.9344 52.4478 11.8259 52.6056 11.7668L52.7534 11.6485V11.6781L52.8717 11.5302H52.9309C53.0492 11.5302 53.1281 11.471 53.1675 11.3527C53.2267 11.2344 53.345 11.1556 53.5224 11.1161C53.6407 11.0767 53.7393 11.0865 53.8182 11.1457C53.897 11.2048 53.9956 11.2344 54.1139 11.2344C54.2322 11.2344 54.3604 11.195 54.4984 11.1161L54.9421 11.0274C55.0012 11.0274 55.0308 11.0471 55.0308 11.0865C55.0308 11.126 54.9716 11.1753 54.8533 11.2344C54.7547 11.2936 54.6857 11.3429 54.6463 11.3823L54.6167 11.4119L54.5871 11.471L54.4688 11.6189C54.3505 11.7569 54.2125 11.9245 54.0548 12.1217C53.9168 12.2992 53.7689 12.447 53.6111 12.5653C53.4337 12.7034 53.2957 12.7724 53.1971 12.7724ZM48.7016 22.0887C48.5833 22.0887 48.5241 22.0197 48.5241 21.8817C48.5241 21.7831 48.5537 21.6648 48.6128 21.5268C48.7706 21.1916 48.948 20.7184 49.1452 20.1072C49.3621 19.4959 49.6283 18.9734 49.9437 18.5396C50.1606 18.1059 50.3578 17.6819 50.5353 17.2679C50.7324 16.8341 50.9197 16.4003 51.0972 15.9665C51.0972 15.9665 51.0775 15.9567 51.0381 15.937C51.0183 15.8975 51.0085 15.8581 51.0085 15.8187C50.8902 15.7398 50.762 15.6314 50.624 15.4933C50.5057 15.3356 50.4958 15.1779 50.5944 15.0201C50.6339 14.9807 50.6634 14.961 50.6831 14.961C50.7029 14.961 50.7127 14.961 50.7127 14.961C50.7127 14.9413 50.7029 14.9314 50.6831 14.9314C50.6831 14.9117 50.6831 14.9018 50.6831 14.9018C50.6831 14.8229 50.7226 14.7737 50.8014 14.7539C50.8803 14.7342 50.9197 14.7046 50.9197 14.6652C50.9592 14.3892 51.1958 14.1821 51.6296 14.0441C52.0633 13.9061 52.4478 13.8371 52.783 13.8371C53.1182 13.8371 53.2858 13.8864 53.2858 13.985C53.2858 14.0244 53.2267 14.0934 53.1084 14.192C53.0492 14.2314 52.9506 14.3202 52.8126 14.4582C52.6746 14.5962 52.5464 14.7638 52.4281 14.961L52.1915 15.3159C52.1718 15.3553 52.1422 15.4046 52.1028 15.4638C52.0831 15.5032 52.0535 15.5426 52.0141 15.5821C51.6986 16.1539 51.4423 16.6369 51.2451 17.0313C51.0479 17.4256 50.8113 17.9284 50.5353 18.5396C50.4958 18.6579 50.4761 18.7368 50.4761 18.7762C50.4761 18.9143 50.555 18.9833 50.7127 18.9833C50.831 18.9833 50.9493 18.9537 51.0676 18.8945L51.3634 18.7762C51.8366 18.3425 52.3295 17.9777 52.8422 17.6819C52.8619 17.6819 52.8717 17.6819 52.8717 17.6819C52.8915 17.6622 52.9112 17.6524 52.9309 17.6524C52.9901 17.6524 53.0295 17.6918 53.0492 17.7707C53.0689 17.8298 53.0492 17.8791 52.9901 17.9185C52.4183 18.234 51.8859 18.6382 51.393 19.1312C51.3732 19.1706 51.3535 19.21 51.3338 19.2495C51.3141 19.2889 51.2845 19.3283 51.2451 19.3678C51.2056 19.4072 51.1465 19.4762 51.0676 19.5748C51.0085 19.6734 50.9789 19.7325 50.9789 19.7522C50.9592 19.8114 50.9296 19.8311 50.8902 19.8114C50.8705 19.7917 50.8113 19.8213 50.7127 19.9001C50.693 19.9198 50.6733 19.9593 50.6536 20.0184C50.6536 20.0776 50.6437 20.1269 50.624 20.1663C50.6043 20.2255 50.5648 20.2747 50.5057 20.3142C50.4663 20.3339 50.4465 20.3536 50.4465 20.3733C50.4268 20.4522 50.3874 20.5015 50.3282 20.5212C50.2888 20.5212 50.2494 20.5409 50.2099 20.5804C50.1902 20.6001 50.1902 20.6297 50.2099 20.6691C50.2296 20.7085 50.2198 20.748 50.1804 20.7874C50.1606 20.8465 50.1409 20.8761 50.1212 20.8761C50.1015 20.8564 50.0719 20.8663 50.0325 20.9057C49.9536 20.9846 49.8945 21.024 49.855 21.024C49.7367 21.0634 49.6874 21.093 49.7071 21.1127C49.7466 21.1324 49.7762 21.1522 49.7959 21.1719C49.8353 21.1719 49.8057 21.2015 49.7071 21.2606C49.6677 21.2803 49.6283 21.3395 49.5888 21.4381C49.5494 21.5169 49.51 21.5761 49.4705 21.6155C49.4114 21.6549 49.3522 21.6845 49.2931 21.7042C49.2536 21.724 49.2044 21.7634 49.1452 21.8225C48.9677 22 48.8199 22.0887 48.7016 22.0887ZM56.1544 22.1183C56.1347 22.1183 56.1051 22.0986 56.0657 22.0592C56.0263 22.0394 55.9967 22.0296 55.977 22.0296C55.8981 22.0493 55.8291 22.0592 55.7699 22.0592C55.7108 22.0592 55.6516 22.0592 55.5925 22.0592C55.5728 22.0592 55.5531 22.0493 55.5333 22.0296C55.5333 22.0099 55.5235 22 55.5038 22C55.484 22 55.4742 22 55.4742 22C55.4939 22.0197 55.4939 22.0296 55.4742 22.0296C55.4742 22.0296 55.4545 22.0197 55.415 22C55.3756 21.9803 55.346 21.9704 55.3263 21.9704L55.2967 21.9408C55.2573 21.9408 55.2277 21.931 55.208 21.9113C55.208 21.8916 55.1981 21.8817 55.1784 21.8817L55.1489 21.9113L55.1193 21.8817C55.0798 21.862 55.0207 21.8423 54.9418 21.8225C54.8827 21.7831 54.8334 21.7535 54.7939 21.7338C54.7545 21.7338 54.7052 21.7042 54.6461 21.6451H54.5869C54.5475 21.5859 54.4785 21.5465 54.3799 21.5268C54.3799 21.5071 54.37 21.4874 54.3503 21.4676H54.3207C54.2813 21.4085 54.2517 21.3888 54.232 21.4085C54.2123 21.3691 54.1827 21.3395 54.1433 21.3198C54.1236 21.2803 54.094 21.2507 54.0545 21.231C54.0545 21.1522 54.0348 21.1127 53.9954 21.1127C53.9954 21.0733 53.956 21.0141 53.8771 20.9353C53.8179 20.8564 53.7785 20.7874 53.7588 20.7282L53.7292 20.6987C53.6503 20.6198 53.5912 20.4916 53.5518 20.3142C53.532 20.2353 53.5123 20.2057 53.4926 20.2255C53.4926 20.2452 53.4827 20.1959 53.463 20.0776C53.463 20.0579 53.463 20.0283 53.463 19.9888C53.4827 19.9297 53.4827 19.8903 53.463 19.8705C53.463 19.8508 53.4532 19.841 53.4335 19.841C53.4335 19.8213 53.4335 19.8015 53.4335 19.7818C53.4137 19.7621 53.4039 19.7522 53.4039 19.7522C53.4236 19.7325 53.4335 19.7227 53.4335 19.7227C53.4335 19.6832 53.4236 19.6635 53.4039 19.6635C53.4039 19.6438 53.4039 19.6241 53.4039 19.6044V19.5452C53.4039 19.4466 53.4236 19.3776 53.463 19.3382C53.463 19.2987 53.4729 19.2692 53.4926 19.2495C53.5123 19.2297 53.5222 19.21 53.5222 19.1903C53.5222 19.1509 53.5419 19.1312 53.5813 19.1312C53.6208 19.1312 53.6405 19.1213 53.6405 19.1016C53.6405 19.0621 53.6503 19.0424 53.6701 19.0424C53.7095 19.0227 53.7391 19.003 53.7588 18.9833C53.7588 18.9636 53.7686 18.9438 53.7884 18.9241C53.8278 18.9044 53.8475 18.8847 53.8475 18.865C53.9461 18.8058 54.0545 18.7762 54.1729 18.7762C54.4095 18.7762 54.5278 18.8354 54.5278 18.9537C54.5278 18.9931 54.4686 19.0621 54.3503 19.1607C54.3306 19.2199 54.3207 19.2593 54.3207 19.279C54.3404 19.279 54.3306 19.2987 54.2912 19.3382C54.3109 19.3973 54.3207 19.4762 54.3207 19.5748C54.301 19.5748 54.2912 19.6044 54.2912 19.6635C54.3109 19.7029 54.3207 19.7227 54.3207 19.7227C54.3207 19.7424 54.3306 19.8015 54.3503 19.9001C54.3897 19.9987 54.4193 20.0579 54.439 20.0776C54.439 20.0776 54.4587 20.1269 54.4982 20.2255C54.5376 20.3043 54.5573 20.3536 54.5573 20.3733V20.4325C54.5968 20.4916 54.6165 20.5311 54.6165 20.5508C54.6362 20.5508 54.7151 20.5902 54.8531 20.6691C54.8728 20.6888 54.9122 20.6987 54.9714 20.6987C55.07 20.7578 55.139 20.8071 55.1784 20.8465C55.2376 20.886 55.3756 20.9254 55.5925 20.9648C55.6714 20.9846 55.7009 21.0043 55.6812 21.024C55.6812 21.024 55.7206 21.024 55.7995 21.024C55.7995 21.024 55.7995 21.0339 55.7995 21.0536C55.7995 21.0536 55.8094 21.0536 55.8291 21.0536C55.8685 21.0339 55.908 21.0339 55.9474 21.0536C55.9868 21.0536 56.0263 21.0437 56.0657 21.024H56.184C56.322 21.024 56.4699 21.0043 56.6276 20.9648L57.0713 20.8465C57.2093 20.8268 57.3375 20.7874 57.4558 20.7282C57.5741 20.6691 57.6825 20.6099 57.7811 20.5508C57.8008 20.5508 57.86 20.5212 57.9585 20.4621C58.0571 20.3832 58.1754 20.3043 58.3135 20.2255C58.2937 20.1663 58.2839 20.0874 58.2839 19.9888C58.2839 19.9297 58.3135 19.9001 58.3726 19.9001C58.4318 19.8804 58.4712 19.8508 58.4909 19.8114C58.4318 19.772 58.3529 19.7522 58.2543 19.7522C58.1754 19.7522 58.1459 19.7227 58.1656 19.6635C58.0867 19.2297 57.9684 18.8354 57.8107 18.4805C57.6726 18.1256 57.5051 17.7312 57.3079 17.2975C57.2882 17.2383 57.2487 17.1397 57.1896 17.0017C57.1304 16.8637 57.091 16.7552 57.0713 16.6764C57.0713 16.6566 57.091 16.6566 57.1304 16.6764C57.1699 16.6764 57.1797 16.6665 57.16 16.6468C57.1403 16.5482 57.1206 16.4496 57.1009 16.351C57.1009 16.2524 57.091 16.1637 57.0713 16.0848C57.0516 16.0454 57.0713 16.0158 57.1304 15.9961C57.1896 15.9764 57.2093 15.9468 57.1896 15.9074C57.1699 15.868 57.1304 15.8581 57.0713 15.8778C57.0121 15.8975 56.9727 15.8877 56.953 15.8482L56.8642 15.4933C56.8642 15.3947 56.8445 15.3356 56.8051 15.3159C56.7854 15.2962 56.8051 15.2567 56.8642 15.1976C56.9037 15.1779 56.9234 15.1483 56.9234 15.1088C56.9234 15.0497 56.9333 15.0103 56.953 14.9905C57.0516 14.9314 57.091 14.8624 57.0713 14.7835C57.0516 14.6849 57.0713 14.5962 57.1304 14.5173C57.1896 14.4385 57.2389 14.3695 57.2783 14.3103C57.3177 14.2314 57.3769 14.1821 57.4558 14.1624C57.5149 14.123 57.5346 14.1328 57.5149 14.192C57.4952 14.2512 57.4952 14.2807 57.5149 14.2807C57.6135 14.2807 57.6529 14.2314 57.6332 14.1328C57.6135 14.0343 57.6431 13.9455 57.7219 13.8667C57.86 13.7484 58.067 13.6498 58.343 13.5709C58.6191 13.492 58.8261 13.4427 58.9641 13.423C59.0036 13.423 59.0331 13.423 59.0529 13.423C59.0923 13.4033 59.1219 13.3935 59.1416 13.3935C59.2402 13.3935 59.3388 13.4033 59.4373 13.423C59.5556 13.4427 59.6641 13.4625 59.7627 13.4822C59.8415 13.5019 59.9598 13.5808 60.1176 13.7188C60.2753 13.8371 60.3936 13.8667 60.4725 13.8075C60.6499 13.6498 60.8373 13.5118 61.0344 13.3935C61.2513 13.2752 61.3893 13.2259 61.4485 13.2456C61.6062 13.2653 61.7442 13.3146 61.8625 13.3935C61.9809 13.4526 62.0203 13.6498 61.9809 13.985C61.9611 14.1033 61.9118 14.2019 61.833 14.2807C61.7738 14.3399 61.7147 14.4187 61.6555 14.5173L61.4485 14.8131C61.3696 14.9511 61.271 15.0891 61.1527 15.2272C61.0541 15.3652 60.9654 15.4539 60.8865 15.4933C60.8077 15.5328 60.7288 15.6018 60.6499 15.7004C60.5908 15.7792 60.5119 15.8581 60.4133 15.937C60.3148 16.0158 60.2063 16.075 60.088 16.1144C59.9894 16.1341 59.9204 16.1539 59.881 16.1736C59.8218 16.1933 59.7331 16.2032 59.6148 16.2032C59.5162 16.1834 59.4866 16.144 59.5261 16.0848C59.5655 16.0651 59.5754 16.0454 59.5556 16.0257C59.5359 15.9863 59.5261 15.9567 59.5261 15.937C59.5261 15.8975 59.5458 15.868 59.5852 15.8482C59.6444 15.8285 59.6838 15.7989 59.7035 15.7595C59.7232 15.7398 59.7725 15.6708 59.8514 15.5525C59.95 15.4342 59.9894 15.3652 59.9697 15.3455C59.9697 15.2863 59.9894 15.237 60.0289 15.1976C60.0289 15.1581 60.0289 15.1286 60.0289 15.1088C60.0289 15.0694 60.0486 15.0398 60.088 15.0201C60.1669 15.0004 60.2063 14.9708 60.2063 14.9314V14.5765C60.2063 14.4976 60.1964 14.4187 60.1767 14.3399C60.1767 14.261 60.157 14.192 60.1176 14.1328C59.9598 13.9357 59.7035 13.8371 59.3486 13.8371C59.0923 13.8371 58.8458 13.8962 58.6092 14.0145C58.3529 14.1328 58.136 14.33 57.9585 14.6061C57.8205 14.8032 57.7515 15.0103 57.7515 15.2272C57.7515 15.3849 57.7811 15.5426 57.8402 15.7004C57.9191 15.8581 57.9881 16.006 58.0473 16.144C58.1064 16.282 58.1853 16.4496 58.2839 16.6468C58.4022 16.844 58.4909 17.0017 58.5501 17.12C58.6486 17.2777 58.7571 17.4651 58.8754 17.6819C58.9937 17.8791 59.0824 18.0664 59.1416 18.2439C59.1613 18.2636 59.1416 18.2833 59.0824 18.303C59.043 18.303 59.0331 18.3227 59.0529 18.3622C59.0726 18.4016 59.1021 18.4213 59.1416 18.4213C59.181 18.4213 59.2106 18.4411 59.2303 18.4805C59.2697 18.5396 59.2697 18.5889 59.2303 18.6284C59.2106 18.6678 59.2106 18.7269 59.2303 18.8058C59.2303 18.8255 59.25 18.8453 59.2895 18.865C59.3289 18.8847 59.3486 18.9044 59.3486 18.9241C59.4472 19.1804 59.4965 19.3875 59.4965 19.5452C59.6739 19.4466 59.8711 19.3283 60.088 19.1903C60.3049 19.0523 60.4232 18.9241 60.4429 18.8058C60.4626 18.7664 60.4922 18.7565 60.5316 18.7762C60.5908 18.7762 60.6204 18.796 60.6204 18.8354C60.6006 18.9734 60.4331 19.1607 60.1176 19.3973C59.8218 19.6339 59.5951 19.8015 59.4373 19.9001C59.4571 19.9198 59.4472 19.9691 59.4078 20.048C59.3683 20.1269 59.3585 20.186 59.3782 20.2255C59.3782 20.2452 59.3683 20.2747 59.3486 20.3142C59.3289 20.3339 59.3092 20.3635 59.2895 20.4029C59.2895 20.4818 59.2697 20.5409 59.2303 20.5804V20.6395L59.1416 20.6987C59.1219 20.7184 59.0923 20.7677 59.0529 20.8465C59.0331 20.9057 59.0036 20.955 58.9641 20.9944H58.8754C58.836 21.0339 58.8162 21.0832 58.8162 21.1423C58.7768 21.2015 58.6881 21.2705 58.5501 21.3493C58.412 21.4085 58.3233 21.4676 58.2839 21.5268C58.2839 21.5268 58.274 21.5268 58.2543 21.5268C58.2346 21.5268 58.205 21.5465 58.1656 21.5859H58.0769C58.0571 21.5859 58.0374 21.6057 58.0177 21.6451C57.998 21.6648 57.9783 21.6845 57.9585 21.7042C57.8994 21.7042 57.8698 21.724 57.8698 21.7634C57.791 21.7634 57.7318 21.7733 57.6924 21.793L57.3966 21.8521C57.3177 21.931 57.2487 21.9704 57.1896 21.9704L57.16 21.9408C57.1206 21.9803 57.091 22 57.0713 22H56.953C56.9333 22 56.9135 22.0099 56.8938 22.0296C56.8741 22.0493 56.8544 22.0592 56.8347 22.0592H56.7755C56.7558 22.0592 56.7361 22.0592 56.7164 22.0592C56.7164 22.0789 56.6966 22.0887 56.6572 22.0887C56.5981 22.0887 56.5093 22.0887 56.391 22.0887C56.2924 22.0887 56.2136 22.0986 56.1544 22.1183ZM55.8587 21.8521C55.8587 21.8521 55.8784 21.8521 55.9178 21.8521C55.977 21.8324 56.0164 21.8225 56.0361 21.8225C56.1347 21.8225 56.2234 21.8324 56.3023 21.8521C56.3812 21.8521 56.46 21.8521 56.5389 21.8521C56.5783 21.8521 56.5981 21.8324 56.5981 21.793H56.6572C56.7164 21.7338 56.7459 21.724 56.7459 21.7634C56.7657 21.8028 56.7952 21.8028 56.8347 21.7634C56.8741 21.7634 56.8938 21.7535 56.8938 21.7338L57.0121 21.6747C57.0318 21.6747 57.0417 21.6747 57.0417 21.6747C57.0417 21.6549 57.0516 21.6451 57.0713 21.6451H57.1304C57.1699 21.6451 57.2093 21.6254 57.2487 21.5859C57.2882 21.5465 57.3079 21.5268 57.3079 21.5268C57.3079 21.5268 57.3375 21.4972 57.3966 21.4381C57.3966 21.4381 57.4065 21.4381 57.4262 21.4381C57.4459 21.4183 57.4656 21.4085 57.4853 21.4085C57.5248 21.3691 57.5642 21.3493 57.6036 21.3493C57.6036 21.3296 57.6234 21.3099 57.6628 21.2902C57.7022 21.2507 57.7219 21.231 57.7219 21.231C57.7417 21.2113 57.7614 21.2015 57.7811 21.2015C57.8205 21.1817 57.8402 21.162 57.8402 21.1423C57.8797 21.1423 57.9585 21.0733 58.0769 20.9353C58.1952 20.7973 58.274 20.6297 58.3135 20.4325C58.3135 20.3931 58.2543 20.4226 58.136 20.5212C58.0177 20.6001 57.9585 20.6395 57.9585 20.6395C57.8994 20.6592 57.8402 20.6987 57.7811 20.7578C57.7219 20.7973 57.6726 20.817 57.6332 20.817C57.6135 20.817 57.5839 20.8367 57.5445 20.8761C57.5248 20.8958 57.5051 20.9057 57.4853 20.9057C57.4656 20.9057 57.4558 20.9156 57.4558 20.9353C57.4558 20.9353 57.436 20.9254 57.3966 20.9057C57.3769 20.9451 57.3177 20.9846 57.2192 21.024C57.1206 21.0634 57.0516 21.0832 57.0121 21.0832H56.9234L56.8938 21.1127C56.8938 21.1127 56.884 21.1226 56.8642 21.1423C56.8445 21.1423 56.8248 21.1423 56.8051 21.1423L56.5981 21.1719H56.5685C56.5488 21.1719 56.5291 21.1817 56.5093 21.2015C56.4305 21.2015 56.3417 21.2113 56.2432 21.231C56.1446 21.2507 56.0854 21.2606 56.0657 21.2606H56.0361C56.0361 21.2409 56.0263 21.231 56.0065 21.231V21.2606H55.8587C55.7995 21.2606 55.7305 21.2507 55.6516 21.231C55.5925 21.1916 55.5432 21.1719 55.5038 21.1719C55.484 21.1719 55.4742 21.1817 55.4742 21.2015C55.4742 21.2015 55.4643 21.2015 55.4446 21.2015H55.3855C55.3657 21.2015 55.3559 21.1916 55.3559 21.1719H55.208C55.208 21.1127 55.1883 21.1029 55.1489 21.1423H55.1193C55.0404 21.1423 54.9714 21.1127 54.9122 21.0536C54.8728 20.9944 54.8038 20.9648 54.7052 20.9648L54.6165 20.8761C54.6165 20.8958 54.6066 20.9156 54.5869 20.9353C54.5869 20.9353 54.5869 20.9451 54.5869 20.9648C54.5869 20.9648 54.5968 20.9846 54.6165 21.024C54.6559 21.0437 54.6756 21.0634 54.6756 21.0832L54.7348 21.2015L54.8531 21.3493L54.9122 21.4085C54.932 21.4282 54.9418 21.4381 54.9418 21.4381C54.9615 21.4381 54.9813 21.4578 55.001 21.4972C55.0404 21.4972 55.0601 21.5268 55.0601 21.5859C55.3953 21.7634 55.6615 21.8521 55.8587 21.8521ZM62.7043 22.0887C62.586 22.0887 62.5268 22.0197 62.5268 21.8817C62.5268 21.7831 62.5564 21.6648 62.6156 21.5268C62.7733 21.1916 62.9508 20.7184 63.1479 20.1072C63.3648 19.4959 63.631 18.9734 63.9465 18.5396L65.4253 15.4933C65.307 15.4933 65.1887 15.5229 65.0704 15.5821C64.9718 15.6412 64.9225 15.6905 64.9225 15.7299C64.9225 15.8088 64.814 15.8877 64.5972 15.9665C64.3803 16.0454 64.262 16.0947 64.2422 16.1144C63.9465 16.1933 63.6704 16.282 63.4141 16.3806C63.2169 16.5975 63.0198 16.8144 62.8226 17.0313C62.6452 17.2482 62.4776 17.4651 62.3198 17.6819C62.3001 17.7017 62.2804 17.7115 62.2607 17.7115C62.0832 17.9087 61.9353 18.0566 61.817 18.1552C61.6987 18.2537 61.5706 18.3425 61.4325 18.4213C61.3537 18.4805 61.2748 18.5002 61.1959 18.4805C61.0974 18.4411 61.0875 18.4016 61.1664 18.3622C61.2649 18.3227 61.4227 18.1847 61.6396 17.9481C61.8565 17.7115 62.0241 17.5341 62.1424 17.4158C62.2409 17.3566 62.2705 17.3566 62.2311 17.4158C62.2114 17.4749 62.2409 17.4651 62.3198 17.3862L63.0592 16.4398L63.0888 16.4102C62.9902 16.351 62.9409 16.1933 62.9409 15.937C62.9409 15.7398 62.9803 15.5821 63.0592 15.4638C63.0592 15.444 63.0789 15.4342 63.1184 15.4342L63.7395 15.2567C63.7986 15.2567 63.838 15.2469 63.8578 15.2272C63.8972 15.1877 63.9366 15.1384 63.9761 15.0793C64.0352 15.0004 64.1042 14.9018 64.1831 14.7835L64.538 14.3103L64.7746 13.985C64.7746 13.9258 64.814 13.8568 64.8929 13.7779C64.9915 13.6794 65.0704 13.6103 65.1295 13.5709C65.2084 13.4526 65.2577 13.3639 65.2774 13.3047C65.3168 13.2259 65.376 13.1273 65.4548 13.009C65.4548 12.9893 65.4844 12.9794 65.5436 12.9794C65.6027 12.9597 65.6323 12.94 65.6323 12.9202C65.652 12.7231 65.6816 12.6343 65.721 12.6541C65.7802 12.6541 65.8098 12.6245 65.8098 12.5653C65.8098 12.5062 65.8492 12.4569 65.9281 12.4175L66.0759 12.24C66.0759 12.2203 66.1055 12.1808 66.1647 12.1217V12.0921C66.1647 12.0527 66.1647 12.0034 66.1647 11.9442C66.1647 11.8851 66.1844 11.8259 66.2238 11.7668C66.2633 11.7274 66.2928 11.7076 66.3125 11.7076C66.3323 11.7076 66.3421 11.7076 66.3421 11.7076C66.3421 11.6879 66.3323 11.6781 66.3125 11.6781C66.3125 11.6583 66.3125 11.6485 66.3125 11.6485C66.3125 11.5696 66.352 11.5203 66.4308 11.5006C66.5097 11.4809 66.5492 11.4513 66.5492 11.4119C66.5886 11.1358 66.8252 10.9288 67.259 10.7908C67.6927 10.6528 68.0772 10.5838 68.4124 10.5838C68.7476 10.5838 68.9152 10.6331 68.9152 10.7316C68.9152 10.7711 68.8561 10.8401 68.7378 10.9387C68.6786 10.9584 68.58 11.0471 68.442 11.2048C68.304 11.3429 68.1758 11.5105 68.0575 11.7076L67.8209 12.0625C67.8012 12.102 67.7716 12.1513 67.7322 12.2104C67.7125 12.2499 67.6829 12.2893 67.6435 12.3287C67.5054 12.5653 67.3181 12.9005 67.0815 13.3343C66.8646 13.7484 66.628 14.2117 66.3717 14.7244L67.1407 14.6356C67.1998 14.6356 67.2195 14.6455 67.1998 14.6652C67.1998 14.6849 67.2294 14.6849 67.2885 14.6652C67.3871 14.6652 67.4561 14.6554 67.4956 14.6356C67.535 14.5962 67.604 14.5666 67.7026 14.5469C67.8603 14.5272 68.0378 14.5173 68.235 14.5173C68.4519 14.4976 68.6195 14.4878 68.7378 14.4878C68.8166 14.4878 68.9152 14.4878 69.0335 14.4878C69.1518 14.4878 69.2405 14.4976 69.2997 14.5173C69.3391 14.5173 69.349 14.537 69.3293 14.5765C69.3293 14.5962 69.3391 14.6061 69.3588 14.6061C69.3983 14.6061 69.4279 14.5962 69.4476 14.5765C69.487 14.5568 69.5264 14.5469 69.5659 14.5469C69.5856 14.5272 69.6152 14.5272 69.6546 14.5469C69.7138 14.5469 69.7532 14.5469 69.7729 14.5469L70.0687 14.6356C70.187 14.6554 70.2461 14.7244 70.2461 14.8427C70.2658 14.961 70.2165 15.0004 70.0982 14.961C70.0194 14.9215 69.9504 14.9018 69.8912 14.9018H69.1518C69.0138 14.9018 68.8856 14.9018 68.7673 14.9018C68.649 14.9018 68.5307 14.9117 68.4124 14.9314C68.373 14.9511 68.3533 14.9314 68.3533 14.8722C68.373 14.8131 68.3631 14.7835 68.3237 14.7835C68.304 14.7835 68.2744 14.8131 68.235 14.8722C68.1955 14.9117 68.166 14.9314 68.1462 14.9314L67.9984 15.0201C67.6829 15.099 67.3477 15.1877 66.9928 15.2863C66.6379 15.3652 66.2928 15.4539 65.9576 15.5525C65.6619 16.1637 65.376 16.7454 65.0999 17.2975C64.8436 17.8298 64.6464 18.2439 64.5084 18.5396C64.469 18.6579 64.4493 18.7269 64.4493 18.7467C64.4493 18.9044 64.538 18.9833 64.7155 18.9833C64.8338 18.9833 64.9521 18.9537 65.0704 18.8945L65.3661 18.7762C65.8393 18.3425 66.3323 17.9777 66.8449 17.6819C66.8646 17.6819 66.8745 17.6819 66.8745 17.6819C66.8942 17.6622 66.9139 17.6524 66.9336 17.6524C66.9928 17.6524 67.0322 17.6918 67.0519 17.7707C67.0717 17.8298 67.0519 17.8791 66.9928 17.9185C66.421 18.234 65.8886 18.6382 65.3957 19.1312C65.376 19.1706 65.3563 19.21 65.3365 19.2495C65.3168 19.2889 65.2873 19.3283 65.2478 19.3678C65.2084 19.4072 65.1492 19.4762 65.0704 19.5748C65.0112 19.6734 64.9816 19.7325 64.9816 19.7522C64.9619 19.8114 64.9323 19.8311 64.8929 19.8114C64.8732 19.7917 64.814 19.8213 64.7155 19.9001C64.6957 19.9198 64.676 19.9593 64.6563 20.0184C64.6563 20.0776 64.6464 20.1269 64.6267 20.1663C64.5873 20.2255 64.5479 20.2747 64.5084 20.3142C64.469 20.3339 64.4493 20.3536 64.4493 20.3733C64.4296 20.4522 64.3901 20.5015 64.331 20.5212C64.2915 20.5212 64.2521 20.5409 64.2127 20.5804C64.1929 20.5804 64.1831 20.5902 64.1831 20.6099C64.1831 20.7874 64.1634 20.8663 64.1239 20.8465C64.0845 20.8268 64.0549 20.8465 64.0352 20.9057C63.9563 20.9846 63.8972 21.024 63.8578 21.024C63.7395 21.0634 63.6902 21.093 63.7099 21.1127C63.7493 21.1324 63.7789 21.1522 63.7986 21.1719C63.838 21.1719 63.8085 21.2015 63.7099 21.2606C63.6704 21.2803 63.631 21.3395 63.5916 21.4381C63.5521 21.5169 63.5127 21.5761 63.4733 21.6155C63.4141 21.6549 63.355 21.6845 63.2958 21.7042C63.2367 21.724 63.1874 21.7634 63.1479 21.8225C62.9705 22 62.8226 22.0887 62.7043 22.0887ZM64.3901 15.1384C64.469 15.1187 64.538 15.099 64.5972 15.0793C64.676 15.0596 64.7549 15.03 64.8338 14.9905L65.721 14.8427C65.9576 14.3695 66.1647 13.9455 66.3421 13.5709C66.5196 13.1766 66.6477 12.8907 66.7266 12.7132C66.7266 12.7132 66.7069 12.7034 66.6675 12.6836C66.6477 12.6442 66.6379 12.6048 66.6379 12.5653C66.5984 12.5456 66.5492 12.516 66.49 12.4766C66.4506 12.4372 66.4111 12.4076 66.3717 12.3879L66.1055 12.6541L65.7802 13.0977C65.7802 13.1174 65.7506 13.1371 65.6915 13.1568C65.652 13.1568 65.6323 13.1667 65.6323 13.1864C65.6323 13.2456 65.6027 13.3047 65.5436 13.3639C65.5041 13.423 65.4647 13.4427 65.4253 13.423L65.307 13.7188C65.307 13.7779 65.2774 13.8272 65.2182 13.8667L65.0112 14.1328C65.0112 14.1526 65.0014 14.1723 64.9816 14.192C64.9816 14.192 64.9816 14.2117 64.9816 14.2512C64.9619 14.2906 64.9323 14.3399 64.8929 14.399C64.8535 14.4582 64.8042 14.5173 64.745 14.5765C64.7253 14.5765 64.7155 14.5863 64.7155 14.6061C64.7155 14.6061 64.7056 14.6061 64.6859 14.6061L64.5972 14.7835C64.5183 14.8229 64.469 14.8427 64.4493 14.8427L64.4197 14.9018C64.4197 15.0201 64.4098 15.099 64.3901 15.1384ZM73.6344 22.0887C73.5161 22.0887 73.4569 22.0197 73.4569 21.8817C73.4569 21.7831 73.4865 21.6648 73.5457 21.5268C73.7034 21.1916 73.8809 20.7184 74.078 20.1072C74.2949 19.4959 74.5611 18.9734 74.8766 18.5396C75.0935 18.1059 75.2906 17.6819 75.4681 17.2679C75.6653 16.8341 75.8526 16.4003 76.03 15.9665C76.03 15.9665 76.0103 15.9567 75.9709 15.937C75.9314 15.8975 75.9117 15.8581 75.9117 15.8187C75.8131 15.7398 75.6948 15.6314 75.5568 15.4933C75.4188 15.3356 75.4089 15.1779 75.5272 15.0201C75.5667 14.9807 75.5864 14.961 75.5864 14.961C75.6061 14.961 75.616 14.961 75.616 14.961C75.616 14.9413 75.6061 14.9314 75.5864 14.9314C75.5864 14.9314 75.5864 14.9215 75.5864 14.9018L75.5568 14.8722C75.5371 14.8722 75.5174 14.8722 75.4977 14.8722C75.4977 14.8525 75.4878 14.8427 75.4681 14.8427C75.3892 14.8427 75.3005 14.8624 75.2019 14.9018C75.1033 14.9215 75.0047 14.9314 74.9062 14.9314C74.7878 14.9314 74.6301 14.9807 74.4329 15.0793C74.2358 15.1581 74.0583 15.2272 73.9006 15.2863C73.8217 15.306 73.7724 15.3159 73.7527 15.3159C73.7527 15.2962 73.7133 15.306 73.6344 15.3455C73.6147 15.3652 73.6147 15.3356 73.6344 15.2567C73.6738 15.1581 73.6935 15.0891 73.6935 15.0497C73.6935 15.03 73.6837 15.0201 73.664 15.0201C73.6245 15.0201 73.5457 15.0793 73.4274 15.1976C73.3091 15.2962 73.2302 15.3553 73.1908 15.375C73.171 15.3947 73.1612 15.4243 73.1612 15.4638C73.1809 15.5032 73.1908 15.5426 73.1908 15.5821C73.1908 15.6412 73.1415 15.7102 73.0429 15.7891C72.9443 15.8482 72.8753 15.8975 72.8358 15.937C72.757 15.9961 72.6584 16.0356 72.5401 16.0553C72.4415 16.0553 72.3429 16.0947 72.2443 16.1736C72.126 16.2524 72.0669 16.3116 72.0669 16.351C72.0866 16.3905 72.0274 16.4595 71.8894 16.5581C71.712 16.6961 71.4655 16.9031 71.15 17.1792C70.8543 17.4552 70.6275 17.7017 70.4698 17.9185C70.0952 18.372 69.7501 18.8945 69.4346 19.4861C69.1389 20.0776 68.991 20.5409 68.991 20.8761C68.991 21.1324 69.0994 21.2606 69.3163 21.2606C69.3558 21.2606 69.3952 21.2606 69.4346 21.2606C69.4741 21.2409 69.5234 21.2212 69.5825 21.2015L70.3515 20.7578L70.5289 20.7282V20.6987L70.6472 20.7874C70.667 20.7677 70.6571 20.7381 70.6177 20.6987C70.5979 20.6395 70.5979 20.6099 70.6177 20.6099C70.6374 20.6099 70.6472 20.6198 70.6472 20.6395C70.667 20.6395 70.6867 20.6395 70.7064 20.6395L70.7655 20.5508C70.7655 20.5508 70.7951 20.5606 70.8543 20.5804C70.9331 20.5804 70.9923 20.5606 71.0317 20.5212C71.0909 20.5015 71.1007 20.4719 71.0613 20.4325C71.0416 20.3931 71.012 20.3635 70.9726 20.3438L71.1796 20.1663C71.1993 20.1269 71.2782 20.0874 71.4162 20.048C71.7514 19.8311 72.0274 19.5748 72.2443 19.279C72.4809 18.9636 72.7471 18.6777 73.0429 18.4213H73.0725L73.4274 18.0664L73.3978 17.9777L73.7823 17.5341H73.8414C73.8611 17.4946 73.9006 17.4453 73.9597 17.3862C74.0386 17.327 74.0879 17.2777 74.1076 17.2383C74.147 17.2186 74.2358 17.12 74.3738 16.9425C74.5315 16.7454 74.6794 16.5876 74.8174 16.4693C74.9752 16.351 75.0639 16.2919 75.0836 16.2919C75.1033 16.2919 75.1132 16.3017 75.1132 16.3215C75.1132 16.3806 75.0836 16.4693 75.0245 16.5876C74.985 16.7059 74.9456 16.7848 74.9062 16.8242C74.7681 17.0411 74.5907 17.2876 74.3738 17.5636C74.1569 17.82 74.0287 17.9777 73.9893 18.0368C73.7527 18.2932 73.4668 18.6382 73.1316 19.072C72.7964 19.4861 72.4316 19.9001 72.0373 20.3142C71.643 20.7282 71.2486 21.0832 70.8543 21.3789C70.4796 21.6549 70.1247 21.793 69.7895 21.793C69.4741 21.793 69.1389 21.6944 68.784 21.4972C68.4291 21.3 68.2516 20.9254 68.2516 20.3733C68.2516 20.1959 68.2713 19.9987 68.3108 19.7818C68.3699 19.5452 68.4586 19.2987 68.5769 19.0424C68.5769 19.0424 68.5967 19.0227 68.6361 18.9833C68.6755 18.9241 68.7051 18.9044 68.7248 18.9241C68.7643 18.865 68.7741 18.8058 68.7544 18.7467C68.7544 18.6678 68.7544 18.6185 68.7544 18.5988L68.8135 18.5396C68.853 18.3227 69.0009 18.1256 69.2572 17.9481C69.5135 17.7707 69.6515 17.6326 69.6712 17.5341C69.691 17.5143 69.7008 17.4848 69.7008 17.4453L69.8191 17.0608V16.9425H69.9374L70.0262 16.8242L70.0557 16.7651C70.0163 16.7454 70.0262 16.7158 70.0853 16.6764C70.1642 16.6172 70.2036 16.5876 70.2036 16.5876C70.2233 16.5482 70.243 16.5186 70.2628 16.4989C70.3022 16.4792 70.3318 16.4595 70.3515 16.4398H70.5585C70.5979 16.3806 70.5782 16.351 70.4994 16.351C70.4205 16.351 70.3811 16.351 70.3811 16.351C70.3811 16.3313 70.3811 16.3215 70.3811 16.3215C70.4008 16.3017 70.4106 16.282 70.4106 16.2623L70.736 15.9961C70.8346 15.9173 70.9331 15.8482 71.0317 15.7891C71.1303 15.7299 71.219 15.6609 71.2979 15.5821C71.3571 15.5821 71.3669 15.6116 71.3275 15.6708C71.3472 15.7102 71.3669 15.7102 71.3866 15.6708C71.4261 15.6314 71.4458 15.6116 71.4458 15.6116L71.5937 15.5821V15.5525C71.5937 15.5131 71.6035 15.4539 71.6232 15.375C71.643 15.2962 71.6528 15.2469 71.6528 15.2272C72.0669 14.9117 72.5007 14.6356 72.9542 14.399C73.4076 14.1427 73.8513 14.0145 74.2851 14.0145C74.7977 14.0145 75.2611 14.2117 75.6751 14.6061L75.823 14.6948C75.8427 14.6948 75.8526 14.6849 75.8526 14.6652C75.892 14.3892 76.1188 14.1821 76.5328 14.0441C76.9666 13.9061 77.3511 13.8371 77.6863 13.8371C78.0412 13.8371 78.2186 13.8864 78.2186 13.985C78.2186 14.0244 78.1595 14.0934 78.0412 14.192C77.982 14.2314 77.8834 14.3202 77.7454 14.4582C77.6074 14.5962 77.4694 14.7638 77.3314 14.961C77.3116 15.0201 77.2821 15.0793 77.2426 15.1384C77.2032 15.1976 77.1638 15.2567 77.1243 15.3159C77.1046 15.3553 77.075 15.4046 77.0356 15.4638C77.0159 15.5032 76.9863 15.5426 76.9469 15.5821C76.6117 16.1539 76.3455 16.6369 76.1483 17.0313C75.9512 17.4256 75.7146 17.9284 75.4385 18.5396C75.3991 18.6579 75.3794 18.7269 75.3794 18.7467C75.3794 18.9044 75.4681 18.9833 75.6455 18.9833C75.7638 18.9833 75.8822 18.9537 76.0005 18.8945L76.2962 18.7762C76.7694 18.3425 77.2624 17.9777 77.775 17.6819C77.7947 17.6819 77.8046 17.6819 77.8046 17.6819C77.8243 17.6622 77.844 17.6524 77.8637 17.6524C77.9229 17.6524 77.9623 17.6918 77.982 17.7707C78.0017 17.8298 77.982 17.8791 77.9229 17.9185C77.3511 18.234 76.8187 18.6382 76.3258 19.1312C76.3061 19.1706 76.2864 19.21 76.2666 19.2495C76.2469 19.2889 76.2173 19.3283 76.1779 19.3678C76.1188 19.4072 76.0596 19.4762 76.0005 19.5748C75.9413 19.6734 75.9117 19.7325 75.9117 19.7522C75.892 19.8114 75.8624 19.8311 75.823 19.8114C75.8033 19.7917 75.7441 19.8213 75.6455 19.9001C75.6258 19.9198 75.6061 19.9593 75.5864 20.0184C75.5864 20.0776 75.5765 20.1269 75.5568 20.1663C75.5174 20.2255 75.4779 20.2747 75.4385 20.3142C75.3991 20.3339 75.3794 20.3536 75.3794 20.3733C75.3596 20.4522 75.3202 20.5015 75.2611 20.5212C75.2216 20.5212 75.1822 20.5409 75.1428 20.5804C75.123 20.5804 75.1132 20.5902 75.1132 20.6099C75.1132 20.7874 75.0935 20.8663 75.054 20.8465C75.0146 20.8268 74.9752 20.8465 74.9357 20.9057C74.8963 20.9846 74.847 21.024 74.7878 21.024C74.6695 21.0634 74.6203 21.093 74.64 21.1127C74.6794 21.1324 74.709 21.1522 74.7287 21.1719C74.7681 21.1719 74.7386 21.2015 74.64 21.2606C74.6005 21.2803 74.5611 21.3395 74.5217 21.4381C74.4822 21.5169 74.4428 21.5761 74.4034 21.6155C74.3442 21.6549 74.2851 21.6845 74.2259 21.7042C74.1668 21.724 74.1175 21.7634 74.078 21.8225C73.9006 22 73.7527 22.0887 73.6344 22.0887ZM90.1691 24.1886C89.9325 24.1886 89.686 24.159 89.4297 24.0999C89.1931 24.0604 88.9466 23.9816 88.6903 23.8633C88.5523 23.6661 88.365 23.5675 88.1284 23.5675C87.9903 23.4098 87.8425 23.3013 87.6847 23.2422C87.5664 23.1633 87.4383 23.045 87.3002 22.8873C87.1819 22.7295 87.0735 22.6408 86.9749 22.6211C86.758 22.3648 86.551 22.0986 86.3538 21.8225C86.1566 21.5465 85.9792 21.2606 85.8215 20.9648V20.9057C85.8215 20.7677 85.7722 20.6592 85.6736 20.5804C85.5947 20.5015 85.5158 20.4029 85.437 20.2846C85.3581 20.1466 85.3384 20.0086 85.3778 19.8705C85.4173 19.7128 85.3581 19.5748 85.2004 19.4565C85.1412 19.279 85.1018 19.0819 85.0821 18.865C85.0821 18.6481 85.0328 18.4706 84.9342 18.3326C84.8947 18.2537 84.875 18.2044 84.875 18.1847C84.875 18.1059 84.8947 18.0368 84.9342 17.9777C84.9736 17.9185 85.0032 17.8495 85.0229 17.7707C84.9243 17.7509 84.875 17.6721 84.875 17.5341V17.4453C84.875 17.2284 84.9638 17.0608 85.1412 16.9425C85.3187 16.8242 85.506 16.7651 85.7032 16.7651C86.0186 16.7651 86.2059 16.8834 86.2651 17.12L86.3538 17.4453C86.2749 17.5439 86.2355 17.6228 86.2355 17.6819C86.2355 17.7411 86.3045 17.8397 86.4425 17.9777C86.4623 18.0566 86.4721 18.165 86.4721 18.303C86.9059 18.9734 87.4876 19.5748 88.2171 20.1072L88.2467 20.1663C88.3255 20.2255 88.3945 20.2747 88.4537 20.3142C88.5128 20.3339 88.5819 20.3635 88.6607 20.4029C88.8776 20.5409 88.9959 20.6494 89.0156 20.7282C89.0551 20.8071 89.2227 20.8465 89.5184 20.8465C89.5776 20.8465 89.617 20.8958 89.6367 20.9944C89.6762 21.093 89.7255 21.162 89.7846 21.2015C89.8438 21.2212 89.9128 21.2212 89.9916 21.2015C90.0705 21.162 90.1395 21.162 90.1987 21.2015C90.2381 21.2212 90.2677 21.2507 90.2874 21.2902C90.3268 21.3099 90.3564 21.3296 90.3761 21.3493C90.4156 21.3691 90.593 21.4381 90.9085 21.5564C91.224 21.6549 91.5394 21.7634 91.8549 21.8817C92.1901 21.9803 92.3971 22.0394 92.476 22.0592C92.6337 21.8817 92.8013 21.7338 92.9788 21.6155C93.1562 21.4775 93.314 21.3099 93.452 21.1127C93.59 21.0733 93.6689 21.0141 93.6886 20.9353C93.7083 20.8367 93.728 20.7282 93.7478 20.6099C93.8463 20.4719 93.9351 20.3142 94.0139 20.1367C94.0928 19.9593 94.1815 19.8114 94.2801 19.6931C94.497 19.4368 94.6252 19.1607 94.6646 18.865C94.7238 18.5692 94.8322 18.3227 94.9899 18.1256C95.0294 18.0861 95.0885 18.0467 95.1674 18.0073C95.266 17.9678 95.3153 17.9284 95.3153 17.889V17.8594C95.3153 17.6622 95.3547 17.4651 95.4336 17.2679C95.5322 17.051 95.6209 16.844 95.6998 16.6468C95.7786 16.5679 95.8279 16.4792 95.8476 16.3806C95.8871 16.2623 95.9364 16.1637 95.9955 16.0848C96.0744 16.006 96.1335 15.937 96.173 15.8778C96.2321 15.8187 96.2518 15.7299 96.2321 15.6116L96.2913 15.1976C96.2913 15.099 96.311 14.9807 96.3504 14.8427C96.4096 14.6849 96.449 14.5568 96.4687 14.4582C96.5082 14.261 96.5673 14.0244 96.6462 13.7484C96.7251 13.4526 96.8039 13.2259 96.8828 13.0681C97.0208 12.8118 97.1194 12.5456 97.1785 12.2696C97.2377 11.9738 97.3067 11.6978 97.3856 11.4415C97.5236 11.3626 97.5926 11.2344 97.5926 11.057C97.632 10.9781 97.6813 10.7908 97.7405 10.495C97.7996 10.1993 97.8292 10.012 97.8292 9.93309C97.7701 9.93309 97.7011 9.91337 97.6222 9.87394C97.563 9.67677 97.5827 9.45002 97.6813 9.1937C97.7799 8.91766 97.9081 8.65147 98.0658 8.39515C98.2236 8.13883 98.3419 7.9318 98.4207 7.77406C98.5587 7.55717 98.7263 7.36986 98.9235 7.21212C99.1207 7.03467 99.3573 6.94594 99.6333 6.94594C99.7319 6.94594 99.8404 6.9558 99.9587 6.97551C100.077 6.97551 100.166 7.01495 100.225 7.09382C100.481 7.1924 100.609 7.34028 100.609 7.53745C100.609 7.67547 100.56 7.84307 100.461 8.04024C100.363 8.2177 100.294 8.39515 100.254 8.57261C100.018 8.67119 99.8798 8.91766 99.8404 9.312C99.8206 9.68663 99.7812 9.98238 99.7221 10.1993C99.7023 10.2979 99.6629 10.3767 99.6038 10.4359C99.5446 10.495 99.5643 10.5838 99.6629 10.7021V10.8795L99.5742 10.9387L99.6925 11.1457C99.6925 11.2048 99.6925 11.333 99.6925 11.5302C99.7122 11.7076 99.7319 11.8851 99.7516 12.0625C99.7714 12.2203 99.7714 12.309 99.7516 12.3287C99.7319 12.3682 99.6925 12.3879 99.6333 12.3879C99.515 12.3879 99.4362 12.3386 99.3967 12.24C99.3376 12.0823 99.308 11.9048 99.308 11.7076C99.3277 11.5105 99.2784 11.333 99.1601 11.1753C99.1404 11.1161 99.1305 11.057 99.1305 10.9978C99.1305 10.9387 99.1305 10.8992 99.1305 10.8795C99.1305 10.8006 99.1305 10.7415 99.1305 10.7021C99.1503 10.6626 99.1601 10.6331 99.1601 10.6133C99.1601 10.5739 99.0813 10.4359 98.9235 10.1993V9.90351C98.7066 10.1796 98.5489 10.4556 98.4503 10.7316C98.3517 10.8105 98.2926 10.9091 98.2728 11.0274C98.2531 11.1457 98.2236 11.2541 98.1841 11.3527C97.9869 11.8654 97.7898 12.378 97.5926 12.8907C97.4152 13.4033 97.2377 13.916 97.0602 14.4286C96.9222 14.5075 96.8532 14.6159 96.8532 14.7539C96.8532 14.8722 96.8335 14.9905 96.7941 15.1088L96.2321 16.6468C96.0941 16.6862 96.0251 16.7552 96.0251 16.8538C96.0448 16.9327 96.0547 17.0214 96.0547 17.12C96.0547 17.258 96.0152 17.3862 95.9364 17.5045C95.8772 17.6031 95.8279 17.7115 95.7885 17.8298C95.5124 18.5988 95.1773 19.3776 94.7829 20.1663C94.4083 20.955 93.9646 21.6747 93.452 22.3253C93.728 22.3845 93.9942 22.4338 94.2505 22.4732C94.5069 22.5324 94.7632 22.5817 95.0195 22.6211C95.2758 22.6605 95.5913 22.7 95.9659 22.7394C96.3603 22.7788 96.656 22.8183 96.8532 22.8577C97.0701 22.8971 97.3067 22.9267 97.563 22.9464C97.8194 22.9661 98.056 22.976 98.2728 22.976H98.4799C98.5587 22.976 98.6179 22.976 98.6573 22.976C98.7165 22.9957 98.7954 23.0253 98.8939 23.0647C98.9334 23.0844 98.9728 23.0746 99.0122 23.0352C99.0517 23.0154 99.0911 23.0056 99.1305 23.0056C99.2291 22.9859 99.3277 22.976 99.4263 22.976C99.5249 22.9957 99.6136 23.0056 99.6925 23.0056C99.7319 22.9859 99.7812 22.976 99.8404 22.976C99.9192 22.976 99.9882 22.9859 100.047 23.0056C100.126 23.045 100.195 23.0647 100.254 23.0647C100.353 23.0647 100.432 23.045 100.491 23.0056C100.55 22.9859 100.619 22.976 100.698 22.976C100.797 23.0549 100.885 23.0943 100.964 23.0943C101.043 23.0943 101.122 23.045 101.201 22.9464C101.418 22.9267 101.674 22.8873 101.97 22.8281C102.285 22.769 102.413 22.5718 102.354 22.2366C102.335 22.0789 102.305 21.9803 102.266 21.9408C102.226 21.9014 102.157 21.8324 102.059 21.7338C101.98 21.6747 101.911 21.5958 101.852 21.4972C101.792 21.3986 101.713 21.3395 101.615 21.3198C101.575 21.2803 101.556 21.2212 101.556 21.1423C101.556 21.024 101.625 20.9648 101.763 20.9648C101.842 20.9648 101.921 21.0043 101.999 21.0832C102.078 21.1226 102.128 21.1817 102.147 21.2606C102.187 21.3395 102.246 21.4085 102.325 21.4676C102.364 21.5465 102.433 21.6057 102.532 21.6451C102.63 21.6845 102.719 21.7437 102.798 21.8225C103.015 22.138 103.123 22.4239 103.123 22.6802C103.123 23.0549 102.956 23.3703 102.62 23.6267C102.285 23.883 101.891 24.021 101.437 24.0407C101.398 24.0013 101.339 23.9816 101.26 23.9816C101.181 23.9816 101.112 23.9914 101.053 24.0112C101.014 24.0309 100.954 24.0407 100.876 24.0407C100.501 24.021 100.116 23.9816 99.7221 23.9224C99.3277 23.8633 98.9432 23.814 98.5686 23.7745C98.5292 23.7745 98.4897 23.7647 98.4503 23.745C98.4109 23.745 98.3714 23.745 98.332 23.745C98.194 23.6464 98.0165 23.5971 97.7996 23.5971C97.6025 23.5971 97.425 23.5774 97.2673 23.5379C97.2081 23.5182 97.0701 23.4886 96.8532 23.4492C96.656 23.4098 96.4589 23.3703 96.2617 23.3309C96.0842 23.2915 95.9758 23.2816 95.9364 23.3013C95.7195 23.2619 95.4927 23.2027 95.2561 23.1239C95.0392 23.0647 94.8223 23.0253 94.6055 23.0056C94.3688 22.9661 94.1224 22.907 93.8661 22.8281C93.6295 22.769 93.3928 22.7098 93.1562 22.6507C92.7225 23.1239 92.2591 23.4985 91.7662 23.7745C91.2733 24.0506 90.7409 24.1886 90.1691 24.1886ZM89.9621 23.6858C90.455 23.6858 90.8691 23.5577 91.2042 23.3013C91.5592 23.045 91.8943 22.7394 92.2098 22.3845C92.0126 22.3451 91.8155 22.2958 91.6183 22.2366C91.4211 22.1775 91.224 22.1084 91.0268 22.0296C90.8493 21.9507 90.6916 21.8916 90.5536 21.8521C90.4353 21.793 90.2775 21.7437 90.0804 21.7042C90.0015 21.6845 89.9128 21.6549 89.8142 21.6155C89.7156 21.5761 89.617 21.5465 89.5184 21.5268C89.3804 21.4676 89.2522 21.3888 89.1339 21.2902C89.0156 21.1719 88.8776 21.1324 88.7199 21.1719C88.6213 21.1324 88.5128 21.093 88.3945 21.0536C88.296 21.0141 88.1974 20.9648 88.0988 20.9057C88.0002 20.8268 87.9312 20.7578 87.8918 20.6987C87.8523 20.6198 87.7537 20.6001 87.596 20.6395L87.3594 20.5212C87.2805 20.4423 87.2115 20.3635 87.1524 20.2846C87.1129 20.2057 87.0242 20.1663 86.8862 20.1663C86.7284 20.1663 86.551 20.0776 86.3538 19.9001C86.1566 19.7029 86.0088 19.5354 85.9102 19.3973C86.0088 19.6537 86.1074 19.9001 86.2059 20.1367C86.3045 20.3733 86.4031 20.6099 86.5017 20.8465C86.5411 20.9846 86.5904 21.1029 86.6496 21.2015C86.7284 21.2803 86.7482 21.3888 86.7087 21.5268C86.7087 21.5662 86.758 21.6155 86.8566 21.6747C86.9552 21.7141 87.0439 21.793 87.1228 21.9113C87.1622 22.069 87.2115 22.1577 87.2707 22.1775C87.3298 22.1972 87.389 22.2563 87.4481 22.3549C87.6059 22.5324 87.6946 22.6704 87.7143 22.769C87.734 22.8676 87.9115 22.9366 88.2467 22.976L88.5128 23.1535C88.5917 23.2915 88.6804 23.3605 88.779 23.3605C88.8776 23.3802 88.9861 23.4098 89.1044 23.4492C89.2621 23.4886 89.4001 23.5379 89.5184 23.5971C89.6564 23.6562 89.8043 23.6858 89.9621 23.6858ZM108.9 22.0887C108.782 22.0887 108.723 22.0197 108.723 21.8817C108.723 21.7831 108.752 21.6648 108.811 21.5268C108.969 21.1916 109.146 20.7184 109.344 20.1072C109.561 19.4959 109.827 18.9734 110.142 18.5396C110.359 18.1059 110.556 17.6819 110.734 17.2679C110.931 16.8341 111.118 16.4003 111.296 15.9665C111.296 15.9665 111.276 15.9567 111.237 15.937C111.197 15.8975 111.177 15.8581 111.177 15.8187C111.079 15.7398 110.96 15.6314 110.822 15.4933C110.684 15.3356 110.675 15.1779 110.793 15.0201C110.832 14.9807 110.852 14.961 110.852 14.961C110.872 14.961 110.882 14.961 110.882 14.961C110.882 14.9413 110.872 14.9314 110.852 14.9314C110.852 14.9314 110.852 14.9215 110.852 14.9018L110.822 14.8722C110.803 14.8722 110.783 14.8722 110.763 14.8722C110.763 14.8525 110.753 14.8427 110.734 14.8427C110.655 14.8427 110.566 14.8624 110.468 14.9018C110.369 14.9215 110.27 14.9314 110.172 14.9314C110.053 14.9314 109.896 14.9807 109.699 15.0793C109.501 15.1581 109.324 15.2272 109.166 15.2863C109.087 15.306 109.038 15.3159 109.018 15.3159C109.018 15.2962 108.979 15.306 108.9 15.3455C108.88 15.3652 108.88 15.3356 108.9 15.2567C108.939 15.1581 108.959 15.0891 108.959 15.0497C108.959 15.03 108.949 15.0201 108.93 15.0201C108.89 15.0201 108.811 15.0793 108.693 15.1976C108.575 15.2962 108.496 15.3553 108.456 15.375C108.437 15.3947 108.427 15.4243 108.427 15.4638C108.447 15.5032 108.456 15.5426 108.456 15.5821C108.456 15.6412 108.407 15.7102 108.309 15.7891C108.21 15.8482 108.141 15.8975 108.101 15.937C108.023 15.9961 107.924 16.0356 107.806 16.0553C107.707 16.0553 107.609 16.0947 107.51 16.1736C107.392 16.2524 107.333 16.3116 107.333 16.351C107.352 16.3905 107.293 16.4595 107.155 16.5581C106.978 16.6961 106.731 16.9031 106.416 17.1792C106.12 17.4552 105.893 17.7017 105.735 17.9185C105.361 18.372 105.016 18.8945 104.7 19.4861C104.405 20.0776 104.257 20.5409 104.257 20.8761C104.257 21.1324 104.365 21.2606 104.582 21.2606C104.621 21.2606 104.661 21.2606 104.7 21.2606C104.74 21.2409 104.789 21.2212 104.848 21.2015L105.617 20.7578L105.795 20.7282V20.6987L105.913 20.7874C105.933 20.7677 105.923 20.7381 105.883 20.6987C105.864 20.6395 105.864 20.6099 105.883 20.6099C105.903 20.6099 105.913 20.6198 105.913 20.6395C105.933 20.6395 105.952 20.6395 105.972 20.6395L106.031 20.5508C106.031 20.5508 106.061 20.5606 106.12 20.5804C106.199 20.5804 106.258 20.5606 106.297 20.5212C106.357 20.5015 106.366 20.4719 106.327 20.4325C106.307 20.3931 106.278 20.3635 106.238 20.3438L106.445 20.1663C106.465 20.1269 106.544 20.0874 106.682 20.048C107.017 19.8311 107.293 19.5748 107.51 19.279C107.747 18.9636 108.013 18.6777 108.309 18.4213H108.338L108.693 18.0664L108.663 17.9777L109.048 17.5341H109.107C109.127 17.4946 109.166 17.4453 109.225 17.3862C109.304 17.327 109.354 17.2777 109.373 17.2383C109.413 17.2186 109.501 17.12 109.639 16.9425C109.797 16.7454 109.945 16.5876 110.083 16.4693C110.241 16.351 110.33 16.2919 110.349 16.2919C110.369 16.2919 110.379 16.3017 110.379 16.3215C110.379 16.3806 110.349 16.4693 110.29 16.5876C110.251 16.7059 110.211 16.7848 110.172 16.8242C110.034 17.0411 109.856 17.2876 109.639 17.5636C109.423 17.82 109.294 17.9777 109.255 18.0368C109.018 18.2932 108.732 18.6382 108.397 19.072C108.062 19.4861 107.697 19.9001 107.303 20.3142C106.909 20.7282 106.514 21.0832 106.12 21.3789C105.745 21.6549 105.39 21.793 105.055 21.793C104.74 21.793 104.405 21.6944 104.05 21.4972C103.695 21.3 103.517 20.9254 103.517 20.3733C103.517 20.1959 103.537 19.9987 103.576 19.7818C103.636 19.5452 103.724 19.2987 103.843 19.0424C103.843 19.0424 103.862 19.0227 103.902 18.9833C103.941 18.9241 103.971 18.9044 103.99 18.9241C104.03 18.865 104.04 18.8058 104.02 18.7467C104.02 18.6678 104.02 18.6185 104.02 18.5988L104.079 18.5396C104.119 18.3227 104.266 18.1256 104.523 17.9481C104.779 17.7707 104.917 17.6326 104.937 17.5341C104.957 17.5143 104.966 17.4848 104.966 17.4453L105.085 17.0608V16.9425H105.203L105.292 16.8242L105.321 16.7651C105.282 16.7454 105.292 16.7158 105.351 16.6764C105.43 16.6172 105.469 16.5876 105.469 16.5876C105.489 16.5482 105.509 16.5186 105.528 16.4989C105.568 16.4792 105.597 16.4595 105.617 16.4398H105.824C105.864 16.3806 105.844 16.351 105.765 16.351C105.686 16.351 105.647 16.351 105.647 16.351C105.647 16.3313 105.647 16.3215 105.647 16.3215C105.666 16.3017 105.676 16.282 105.676 16.2623L106.002 15.9961C106.1 15.9173 106.199 15.8482 106.297 15.7891C106.396 15.7299 106.485 15.6609 106.564 15.5821C106.623 15.5821 106.633 15.6116 106.593 15.6708C106.613 15.7102 106.633 15.7102 106.652 15.6708C106.692 15.6314 106.711 15.6116 106.711 15.6116L106.859 15.5821V15.5525C106.859 15.5131 106.869 15.4539 106.889 15.375C106.909 15.2962 106.918 15.2469 106.918 15.2272C107.333 14.9117 107.766 14.6356 108.22 14.399C108.673 14.1427 109.117 14.0145 109.551 14.0145C110.063 14.0145 110.527 14.2117 110.941 14.6061L111.089 14.6948C111.108 14.6948 111.118 14.6849 111.118 14.6652C111.158 14.3892 111.384 14.1821 111.798 14.0441C112.232 13.9061 112.617 13.8371 112.952 13.8371C113.307 13.8371 113.484 13.8864 113.484 13.985C113.484 14.0244 113.425 14.0934 113.307 14.192C113.248 14.2314 113.149 14.3202 113.011 14.4582C112.873 14.5962 112.735 14.7638 112.597 14.961C112.577 15.0201 112.548 15.0793 112.508 15.1384C112.469 15.1976 112.429 15.2567 112.39 15.3159C112.37 15.3553 112.341 15.4046 112.301 15.4638C112.282 15.5032 112.252 15.5426 112.213 15.5821C111.877 16.1539 111.611 16.6369 111.414 17.0313C111.217 17.4256 110.98 17.9284 110.704 18.5396C110.665 18.6579 110.645 18.7269 110.645 18.7467C110.645 18.9044 110.734 18.9833 110.911 18.9833C111.029 18.9833 111.148 18.9537 111.266 18.8945L111.562 18.7762C112.035 18.3425 112.528 17.9777 113.041 17.6819C113.06 17.6819 113.07 17.6819 113.07 17.6819C113.09 17.6622 113.11 17.6524 113.129 17.6524C113.189 17.6524 113.228 17.6918 113.248 17.7707C113.267 17.8298 113.248 17.8791 113.189 17.9185C112.617 18.234 112.084 18.6382 111.591 19.1312C111.572 19.1706 111.552 19.21 111.532 19.2495C111.513 19.2889 111.483 19.3283 111.444 19.3678C111.384 19.4072 111.325 19.4762 111.266 19.5748C111.207 19.6734 111.177 19.7325 111.177 19.7522C111.158 19.8114 111.128 19.8311 111.089 19.8114C111.069 19.7917 111.01 19.8213 110.911 19.9001C110.891 19.9198 110.872 19.9593 110.852 20.0184C110.852 20.0776 110.842 20.1269 110.822 20.1663C110.783 20.2255 110.744 20.2747 110.704 20.3142C110.665 20.3339 110.645 20.3536 110.645 20.3733C110.625 20.4522 110.586 20.5015 110.527 20.5212C110.487 20.5212 110.448 20.5409 110.408 20.5804C110.389 20.5804 110.379 20.5902 110.379 20.6099C110.379 20.7874 110.359 20.8663 110.32 20.8465C110.28 20.8268 110.241 20.8465 110.201 20.9057C110.162 20.9846 110.113 21.024 110.053 21.024C109.935 21.0634 109.886 21.093 109.906 21.1127C109.945 21.1324 109.975 21.1522 109.994 21.1719C110.034 21.1719 110.004 21.2015 109.906 21.2606C109.866 21.2803 109.827 21.3395 109.787 21.4381C109.748 21.5169 109.708 21.5761 109.669 21.6155C109.61 21.6549 109.551 21.6845 109.492 21.7042C109.432 21.724 109.383 21.7634 109.344 21.8225C109.166 22 109.018 22.0887 108.9 22.0887ZM114.622 22.5028C114.148 22.5619 113.813 22.4929 113.616 22.2958C113.419 22.0986 113.241 21.9014 113.084 21.7042C113.064 21.6451 113.005 21.6451 112.906 21.7042C112.827 21.7437 112.768 21.7338 112.729 21.6747C112.689 21.5958 112.64 21.4676 112.581 21.2902C112.522 21.093 112.512 20.9156 112.551 20.7578C112.591 20.6789 112.67 20.5804 112.788 20.4621C112.906 20.3438 112.985 20.255 113.024 20.1959C113.044 20.1959 113.123 20.1367 113.261 20.0184C113.419 19.8804 113.557 19.7325 113.675 19.5748C113.754 19.2199 113.833 18.8748 113.912 18.5396C114.01 18.1847 114.158 17.7904 114.355 17.3566V17.2087C114.355 17.1496 114.355 17.0904 114.355 17.0313C114.375 16.9721 114.395 16.913 114.415 16.8538C114.493 16.6961 114.562 16.5975 114.622 16.5581C114.7 16.4989 114.769 16.3806 114.829 16.2032C114.888 16.0454 114.937 15.868 114.976 15.6708C115.036 15.4736 115.105 15.3455 115.183 15.2863C115.203 15.2863 115.213 15.2863 115.213 15.2863C115.213 15.2666 115.223 15.2567 115.243 15.2567C115.282 15.2567 115.321 15.2863 115.361 15.3455C115.4 15.3849 115.43 15.306 115.45 15.1088L115.42 15.0793C115.42 15.0398 115.43 14.9905 115.45 14.9314C115.489 14.8722 115.499 14.8328 115.479 14.8131V14.7244C115.479 14.6061 115.519 14.4976 115.598 14.399C115.696 14.2807 115.785 14.1526 115.864 14.0145C115.903 13.9554 115.982 13.9258 116.1 13.9258C116.219 13.9061 116.268 13.8765 116.248 13.8371L116.159 13.423C116.199 13.2653 116.278 13.1766 116.396 13.1568H116.485C116.544 12.9005 116.593 12.7132 116.633 12.5949C116.692 12.4766 116.761 12.378 116.84 12.2992L117.076 12.0625C117.214 11.9245 117.313 11.7964 117.372 11.6781C117.451 11.5598 117.53 11.4217 117.609 11.264C117.648 11.1851 117.697 11.1161 117.757 11.057C117.835 10.9978 117.904 10.9288 117.964 10.8499C118.003 10.8105 118.013 10.7514 117.993 10.6725C117.993 10.5936 118.003 10.5345 118.023 10.495C118.18 10.2584 118.368 10.0218 118.585 9.78521C118.802 9.52889 119.009 9.30214 119.206 9.10497C119.265 9.00638 119.324 8.9078 119.383 8.80921C119.462 8.71063 119.541 8.61204 119.62 8.51345C119.738 8.37543 119.866 8.27685 120.004 8.2177C120.142 8.15854 120.28 8.06982 120.418 7.95151C120.458 7.91208 120.478 7.85293 120.478 7.77406C120.478 7.67547 120.497 7.60646 120.537 7.56703C121.227 7.01495 121.966 6.55159 122.755 6.17697C123.563 5.80234 124.184 5.61503 124.618 5.61503C124.776 5.61503 124.924 5.62489 125.062 5.6446C125.22 5.66432 125.367 5.6939 125.505 5.73333H125.565C125.663 5.73333 125.762 5.75305 125.86 5.79248C125.959 5.83192 126.048 5.87135 126.127 5.91079C126.205 5.91079 126.304 5.9305 126.422 5.96994C126.521 6.00937 126.58 6.06852 126.6 6.14739C126.619 6.22626 126.6 6.28541 126.541 6.32485C126.521 6.34456 126.491 6.34456 126.452 6.32485C126.412 6.30513 126.373 6.29527 126.334 6.29527C126.294 6.29527 126.255 6.27555 126.215 6.23612C126.176 6.19669 126.136 6.16711 126.097 6.14739C126.018 6.14739 125.939 6.15725 125.86 6.17697C125.801 6.19669 125.732 6.20654 125.653 6.20654C125.436 6.20654 125.298 6.18683 125.239 6.14739C125.18 6.08824 125.062 6.07838 124.884 6.11782C124.865 6.11782 124.805 6.12768 124.707 6.14739C124.608 6.16711 124.539 6.17697 124.5 6.17697C123.79 6.35442 123.169 6.65018 122.637 7.06424C122.104 7.45859 121.631 7.90222 121.217 8.39515C120.823 8.88808 120.438 9.36129 120.063 9.81479C119.886 10.1697 119.709 10.4556 119.531 10.6725C119.511 10.6922 119.492 10.6823 119.472 10.6429C119.452 10.6035 119.433 10.6035 119.413 10.6429C119.354 10.7021 119.304 10.8006 119.265 10.9387C119.245 11.057 119.206 11.1556 119.147 11.2344C119.127 11.2541 119.107 11.2541 119.087 11.2344C119.087 11.2147 119.068 11.2048 119.028 11.2048C118.969 11.2048 118.959 11.2443 118.999 11.3232C119.058 11.3823 119.068 11.4316 119.028 11.471C118.792 11.8062 118.496 12.1513 118.141 12.5062C117.806 12.8611 117.5 13.2357 117.224 13.6301C116.909 14.123 116.603 14.6061 116.307 15.0793C116.012 15.5328 115.726 15.9863 115.45 16.4398C115.43 16.4595 115.4 16.4891 115.361 16.5285C115.321 16.5482 115.292 16.5778 115.272 16.6172C115.252 16.6369 115.252 16.6665 115.272 16.7059C115.292 16.7257 115.292 16.7552 115.272 16.7947C115.075 17.1101 114.937 17.3665 114.858 17.5636C114.779 17.7411 114.691 17.9284 114.592 18.1256C114.553 18.2242 114.513 18.3523 114.474 18.5101C114.454 18.6678 114.424 18.7861 114.385 18.865C114.444 18.7861 114.631 18.5889 114.947 18.2735C115.282 17.9383 115.676 17.5439 116.13 17.0904C116.603 16.6369 117.066 16.1933 117.52 15.7595C117.579 15.7004 117.638 15.6215 117.697 15.5229C117.757 15.4243 117.816 15.3553 117.875 15.3159C118.013 15.1779 118.161 15.0694 118.319 14.9905C118.476 14.892 118.624 14.7835 118.762 14.6652C118.861 14.5863 118.949 14.5371 119.028 14.5173C119.127 14.4976 119.216 14.4582 119.295 14.399C119.334 14.3793 119.344 14.3596 119.324 14.3399C119.304 14.3004 119.314 14.2709 119.354 14.2512C119.571 14.1328 119.689 14.0638 119.709 14.0441C119.728 14.0244 119.807 13.9948 119.945 13.9554C120.162 13.8765 120.409 13.8371 120.685 13.8371C120.862 13.8371 120.97 13.8469 121.01 13.8667C121.108 13.9258 121.217 13.9751 121.335 14.0145C121.454 14.054 121.513 14.1723 121.513 14.3695C121.513 14.468 121.523 14.5272 121.542 14.5469C121.562 14.5469 121.572 14.6159 121.572 14.7539C121.572 14.8525 121.552 15.0103 121.513 15.2272C121.493 15.444 121.473 15.6116 121.454 15.7299L121.335 16.4693C121.316 16.5285 121.316 16.5876 121.335 16.6468C121.355 16.7059 121.355 16.7651 121.335 16.8242C121.316 16.844 121.286 16.8735 121.247 16.913C121.207 16.9524 121.177 16.9918 121.158 17.0313C121.02 17.051 120.921 17.12 120.862 17.2383C120.823 17.3369 120.872 17.3763 121.01 17.3566C120.99 17.3763 120.951 17.4059 120.892 17.4453C120.852 17.4848 120.823 17.5242 120.803 17.5636C120.783 17.5834 120.793 17.6031 120.832 17.6228C120.872 17.6228 120.852 17.6918 120.773 17.8298C120.714 17.9284 120.655 18.0566 120.596 18.2143C120.537 18.372 120.478 18.5002 120.418 18.5988C120.359 18.6777 120.3 18.7269 120.241 18.7467C120.201 18.7664 120.152 18.8157 120.093 18.8945C120.073 18.934 120.063 18.9734 120.063 19.0128C120.063 19.0523 120.044 19.0917 120.004 19.1312C119.985 19.1706 119.945 19.2002 119.886 19.2199C119.847 19.2396 119.807 19.2692 119.768 19.3086C119.137 20.0579 118.368 20.7381 117.461 21.3493C116.574 21.9606 115.627 22.3451 114.622 22.5028ZM114.71 21.9408C114.888 21.9408 115.144 21.9014 115.479 21.8225C115.814 21.724 116.12 21.5958 116.396 21.4381C116.495 21.3986 116.583 21.3493 116.662 21.2902C116.761 21.2113 116.85 21.1324 116.928 21.0536C117.007 20.9747 117.057 20.8958 117.076 20.817C117.155 20.6987 117.273 20.5705 117.431 20.4325L117.579 20.3438C117.658 20.2649 117.737 20.1269 117.816 19.9297H117.875C117.954 19.91 118.003 19.8705 118.023 19.8114L118.171 19.7522C118.171 19.6931 118.19 19.6438 118.23 19.6044C118.269 19.5255 118.338 19.4368 118.437 19.3382C118.535 19.2199 118.585 19.1213 118.585 19.0424C118.585 19.0227 118.565 18.9931 118.526 18.9537C118.545 18.9143 118.585 18.8453 118.644 18.7467C118.723 18.6284 118.772 18.5495 118.792 18.5101L118.969 18.4805L119.058 18.303V18.2439C119.314 18.2439 119.423 18.1453 119.383 17.9481L119.59 17.3862C119.63 17.2284 119.689 17.12 119.768 17.0608C119.768 16.982 119.778 16.9327 119.797 16.913C119.817 16.8933 119.837 16.8538 119.856 16.7947C119.916 16.6369 119.975 16.4299 120.034 16.1736C120.113 15.9173 120.152 15.7891 120.152 15.7891L120.063 15.6116C120.063 15.5722 120.034 15.5131 119.975 15.4342C119.935 15.3553 119.925 15.2863 119.945 15.2272C119.985 15.0891 120.054 15.0004 120.152 14.961C120.271 14.9215 120.29 14.892 120.211 14.8722H120.182C120.123 14.8722 120.054 14.8821 119.975 14.9018C119.916 14.9215 119.837 14.9511 119.738 14.9905C119.62 15.03 119.511 15.0398 119.413 15.0201C119.314 15.0004 119.235 15.0103 119.176 15.0497C118.979 15.1088 118.772 15.2074 118.555 15.3455C118.338 15.4638 118.102 15.6314 117.845 15.8482C117.826 15.868 117.796 15.9074 117.757 15.9665C117.717 16.0257 117.678 16.075 117.638 16.1144C117.619 16.1341 117.579 16.144 117.52 16.144C117.481 16.144 117.441 16.1637 117.402 16.2032C117.382 16.2229 117.382 16.2524 117.402 16.2919C117.421 16.3313 117.421 16.3707 117.402 16.4102C117.362 16.4299 117.323 16.4496 117.283 16.4693C117.244 16.4891 117.204 16.5186 117.165 16.5581L117.076 16.7059C116.741 17.0806 116.327 17.4946 115.834 17.9481C115.361 18.4016 114.957 18.8453 114.622 19.279L118.88 17.6524C118.999 17.5932 119.107 17.5636 119.206 17.5636C119.245 17.5439 119.295 17.5636 119.354 17.6228C119.373 17.6622 119.354 17.7017 119.295 17.7411C119.255 17.7805 119.225 17.7904 119.206 17.7707L119.058 17.7411C119.038 17.7608 118.999 17.7904 118.94 17.8298C118.9 17.8693 118.861 17.889 118.821 17.889C118.742 17.9284 118.693 17.9481 118.673 17.9481C118.654 17.9678 118.614 17.9777 118.555 17.9777C118.496 17.9777 118.457 17.9876 118.437 18.0073C118.397 18.027 118.368 18.0467 118.348 18.0664C118.328 18.0664 118.299 18.0861 118.259 18.1256C117.806 18.3227 117.313 18.5495 116.781 18.8058C116.248 19.0424 115.755 19.279 115.302 19.5156C114.73 19.8311 114.336 20.1367 114.119 20.4325C113.902 20.7085 113.793 20.955 113.793 21.1719C113.793 21.3493 113.843 21.5071 113.941 21.6451C114.04 21.7634 114.158 21.8423 114.296 21.8817C114.434 21.9211 114.572 21.9408 114.71 21.9408Z" fill="#0D0D0C"/>
</svg>
